<?xml version="1.0" encoding="utf-8"?>
<!-- Generator: Adobe Illustrator 26.3.1, SVG Export Plug-In . SVG Version: 6.00 Build 0)  -->
<svg version="1.1" id="レイヤー_1" xmlns="http://www.w3.org/2000/svg" xmlns:xlink="http://www.w3.org/1999/xlink" x="0px"
	 y="0px" viewBox="0 0 546.5 372.1" style="enable-background:new 0 0 546.5 372.1;" xml:space="preserve">
<style type="text/css">
	.st0{display:none;fill:#030000;}
	.st1{display:none;}
	.st2{enable-background:new    ;}
	.st3{fill:#211815;}
</style>
<rect x="-59.6" y="-1.8" class="st0" width="670.7" height="373.9"/>
<g id="HVSE6L_00000176025898129492668410000004674631029484515974_" class="st1">
	
		<image style="display:inline;overflow:visible;enable-background:new    ;" width="498" height="727" xlink:href="362FC409C5341ACE.jpeg"  transform="matrix(0.3486 0 0 0.3455 351.825 38.1776)">
	</image>
</g>
<g id="QtXIJS_00000030444635731997767500000009531559155928628413_" class="st1">
	
		<image style="display:inline;overflow:visible;enable-background:new    ;" width="593" height="655" xlink:href="362FC409C5341AD2.jpeg"  transform="matrix(0.3802 0 0 0.3989 16.3759 33.1162)">
	</image>
</g>
<image style="display:none;overflow:visible;enable-background:new    ;" width="1211" height="1823" xlink:href="362FC409C5341AD2.jpeg"  transform="matrix(0.1936 0 0 0.1918 169.8711 10.2895)">
</image>
<g class="st2">
	<path class="st3" d="M45.5,274.9c-1.8,0.5-4.8-2.7-6.2-6.6c-0.6-1.8-0.9-4.2-0.3-6.1c18.1-48.7,42.4-103.4,71.5-159.2
		c-14.4,5.5-28.8,11.9-41.4,19.2c-0.8,3.8-5.1,7.4-9.5,8.6c-4.5,1.2-7.9-1.4-9-4.5c-1.4-4,7.9-11.4,15.6-15.5
		c15.5-8.2,33.9-16.2,52.4-22.9l5.3-9.8c0.3-0.4,0.5-0.6,0.9-0.7c1.8-0.5,4.6,1.7,5.5,4.3c0.2,0.6,0.2,1.3,0.2,2.1
		c6.2-2,12.5-3.8,18.8-5.4c6.9-1.8,13.6-3.5,20-4.7c0.5-0.1,1.2,0.1,1.4,0.8c1.2,3.3-4.2,12.2-7.1,13c-1,0.3-8.8,1.9-18.9,4.6
		c-7,1.9-14,4-21.3,6.4C94,156.5,68.6,214.9,46.6,273.7C46.4,274.4,45.9,274.8,45.5,274.9z"/>
	<path class="st3" d="M82.8,244.1c-6-16.8,10.3-39.2,26.3-43.4c6-1.6,10.9,1.1,13.6,5l2.7-5.4c2-3.3,2.2-4.1,2.9-4.3
		c1.8-0.5,4.7,1.8,6,5.4c0.3,0.8,0.2,1.8-0.4,3.2c-1.2,2.6-3.3,6.2-5.8,10.3c-3,5.2-6.6,11.8-4.7,17c0.9,2.5,2.4,2.8,4.2,2.4
		c7.9-2.1,20.7-25.7,22.4-28.9c0.6-1.1,0.9-1.3,1.3-1.4c1.6-0.4,4.5,1.4,5.2,3.3c0.1,0.4,0.3,1.1-0.3,2.2
		c-1.6,3-15.1,30.9-28.2,34.4c-6,1.6-10.5-0.7-11.9-4.9c-0.7-1.9-1-4-0.9-6.1c-5,8.6-11.4,17.4-19.6,19.6
		C89.7,254.1,85.2,250.7,82.8,244.1z M97.6,240.9c6.3-1.7,14.6-15.6,21.2-28.3c-1.7-3.2-5-4.4-8.6-3.5c-5.7,1.5-11.7,7.8-14.4,11.7
		c-4.7,7.6-5.5,12.8-4.2,16.3C92.6,240.1,94.7,241.7,97.6,240.9z"/>
	<path class="st3" d="M221.9,69.1c0.7,1.9,0.3,5.1-1.5,9.2c-16,38.3-28.4,63.1-49.8,106.3c-2.4,5.6-4.7,11.1-6.3,17
		c6.9-12.8,13.8-20.2,19.9-21.8c3.4-0.9,6.3,1,7.7,4.9c2.7,7.6-3.6,19.3-16.5,25.8c2.2,3.8,6.4,8.9,11.8,7.5
		c7.6-2,20-24.2,22.5-28.4c0.6-1.1,0.9-1.3,1.3-1.4c1.6-0.4,4.5,1.4,5.2,3.3c0.1,0.4,0.3,1.1-0.3,2.2c-1.8,3.2-15.5,30.5-28.8,34.1
		c-7.9,2.1-14.6-1.6-22.4-13.9c-2.6,5.5-4.8,11.5-6.7,18c-0.7,2.3-1.6,3.6-2.6,3.9c-1.9,0.5-5.6-1.1-6.1-2.5
		c-0.4-1.1,0.1-2.9,0.4-4.4c1.4-6.1,2.7-11.8,4.3-18c-1.2-0.1-3.5-1.4-4.2-3.3c-0.2-0.7-0.3-1,0.3-2.2c1.8-3.2,10.6-21.1,16.7-35
		c15-40,33.5-76.3,44.6-96.4c2.3-3.9,4.8-6.1,7-6.7C219.8,66.9,221.3,67.4,221.9,69.1z M167.6,208.2c12.1-6.1,16.8-12.7,15.8-15.4
		c-0.4-1.1-1.1-1.4-2-1.1C177.6,192.6,172.5,199.1,167.6,208.2z"/>
	<path class="st3" d="M207.9,213.4c-3.9-10.8,1-25.8,11-42.7c0.2-0.2,0.5-0.6,1-0.7c1.8-0.5,4.9,2.2,5.8,4.8c0.3,0.8,0.4,1.4-0.1,2
		c-6.8,11.8-10.7,22.7-8.7,28.4c0.7,2.1,2.5,2.5,4,2.1c6-1.6,17.2-24,23-41.2c0.2-0.5,0.5-1,1.4-1.3c1.9-0.5,5.2,1.4,6.2,4.1
		c0.3,0.8,0.5,1.8,0.3,2.5c-3.8,12.7-7.7,21.6-6,26.6c0.5,1.5,2,2.5,3.7,2.1c5.6-1.5,14.8-17,20.3-26.6c0.6-1.1,0.9-1.3,1.3-1.4
		c1.6-0.4,4.5,1.4,5.2,3.3c0.1,0.4,0.3,1.1-0.3,2.2c-7.9,14-18.6,32.1-28.3,34.7c-3.8,1-8-0.9-9.9-6.2c-0.5-1.5-1-3.5-1-6.1
		c-4.6,9.1-11.3,17.7-18.4,19.6C213.8,220.9,209.7,218.5,207.9,213.4z"/>
	<path class="st3" d="M277.9,154.6c0.3-0.8,0.8-1.6,1.8-1.8c2.2-0.6,6.4,1.2,7.4,4.1c0.1,0.4,0.2,1.5,0.2,2.7c0,6.1-1,12.4-2.5,18.4
		c7.9-13.3,16.2-29.2,23-31c3.1-0.8,5.1,0.5,6.4,3.9c0.9,2.5,2.3,6.5,0.9,15.7c10.1-14.5,22.6-26.4,27.6-27.7c2.1-0.6,5,2.6,5.8,4.7
		c0.9,2.5-4.6,9.3-7.1,13.4c-3.5,6-7,13.7-5.5,18c0.6,1.7,2.2,2.9,3.7,2.5c9.3-2.5,20.6-25.2,22.5-28.4c0.6-1.1,0.9-1.3,1.3-1.4
		c1.6-0.4,4.5,1.4,5.2,3.3c0.1,0.4,0.3,1.1-0.3,2.2c-1.8,3.2-16,30.7-28.8,34.1c-5.3,1.4-10.7-1.3-12.6-6.8
		c-2.3-6.4-0.3-13.4,3.6-21c-10.1,11-15.1,19.3-20.1,31.9c-0.8,2-1.5,3.6-2.8,3.9s-5.1-0.8-5.9-3c-0.4-1.1-0.3-2.5-0.1-3.8
		c1.9-9.3,3.1-16.8,3.7-27.3c-8.9,13.3-16.4,26.1-24.6,42.1c-0.4,0.9-1.3,1.2-2.2,1.5c-2.6,0.7-6.5-0.3-7.3-2.5
		c-0.1-0.4-0.2-0.9-0.1-1.4c2.2-8.5,3.8-16,4.9-23.3c-0.6,1.1-0.9,1.3-1.3,1.4c-1.6,0.4-4.5-1.4-5.2-3.3c-0.2-0.7-0.3-1.1,0.3-2.2
		C271.6,170.3,275.1,162.9,277.9,154.6z"/>
	<path class="st3" d="M359.1,170.6c-3.6-10.1,4.6-27.5,12.7-41.2c0.2-0.5,0.5-0.9,1-1c1.7-0.4,5.5,2,6.3,4.1c0.2,0.6,0.2,1,0,1.2
		c-5.8,12.5-12.8,25.7-10.5,32.1c0.8,2.4,2.3,3.3,4.7,2.7c5.2-1.4,8.3-7.4,10.8-11.5c0.2-0.5,0.6-0.6,1-0.7c1.6-0.4,4.3,1.3,4.9,3.1
		c0.2,0.7,0.4,1.4,0.1,1.9c-1.8,3.7-7.6,14.9-16.6,17.3C366.7,180.5,361.3,176.9,359.1,170.6z M377.2,113.7
		c-1.9-5.4,1.2-13.7,6.5-15.1c2.3-0.6,4.5,0.3,5.6,3.4c2,5.5-1.8,14.1-6.6,15.4C380.7,118,378.3,116.8,377.2,113.7z"/>
</g>
<g class="st2">
	<path class="st3" d="M197.9,276l0.6,0c14.2-13.5,35.7-36.8,35.5-42c-0.1-1.8-0.9-2.6-3.5-2.6c-12.9,0.3-34.9,10.7-51.5,28.8
		c0.7,0.5,1.1,0.9,1.1,1.5c0.1,1.7-7.6,9.3-11.3,9.4c-2.2,0.1-3-0.9-3.1-2.5c-0.3-10.5,40.5-43.5,70.7-44.3c4.8-0.1,6.5,3.2,6.6,6.5
		c0.3,8.3-16.7,26.6-34,43.7c31.4-14.4,51.8-29.1,75.7-52c0.1-0.1,0.4-0.3,0.6-0.3c1.1,0,2.3,2.3,2.4,4.5c0,1.2-0.2,2.2-0.8,2.7
		c-25.1,23.5-51.4,39.8-79,49.9c3.3,1.8,4.5,4.7,4.6,8c0.3,8.2-6.6,19.3-6.4,24.1c0,1.5,0.7,2.4,2.9,2.3c7.8-0.2,21.6-9.7,27.5-14.3
		c0.7-0.5,0.9-0.6,1.2-0.6c1.1,0,2.7,1.3,2.8,2.5c0,0.2-0.1,0.7-0.7,1.2c-7.2,5.6-21.9,16.3-32.1,16.5c-7.6,0.2-10.1-2.5-10.3-6.2
		c-0.2-7.6,8.5-20,8.3-27.2c-0.1-2.1-0.9-3.8-3-4.8c-13.6,12.9-27.6,26.6-43,40.2c-0.3,0.2-0.4,0.3-0.7,0.3c-1.3,0-3.1-2.8-3.1-5.2
		c0-0.9,0.1-1.7,0.8-2.3c13.9-11.9,24.9-21.7,36.8-32.8c-0.4-0.5-0.8-1-0.8-1.6C192.3,277.7,194.7,276.1,197.9,276z"/>
	<path class="st3" d="M229.6,311c-0.2-6,9.4-14.6,17.8-21c0.5-0.3,0.8-0.4,0.9-0.4c1.2,0,3.3,1.8,3.4,3.1c0,0.3-0.1,0.5-0.5,0.8
		c-6.7,6.1-14.3,12.3-14.1,16.1c0,1.4,0.8,2.1,2.6,2.1c6.3-0.2,19.3-11.2,21.2-12.8c0.7-0.5,0.9-0.6,1.2-0.6c1.1,0,2.7,1.3,2.8,2.5
		c0,0.2-0.1,0.7-0.7,1.2c-2,1.5-17.5,15.1-26.6,15.3C232.5,317.4,229.7,314.8,229.6,311z M254.6,282c-0.1-3.2,3.9-7.4,7.8-7.5
		c1.7,0,3,0.8,3.1,2.6c0.1,3.3-4.3,7.6-7.9,7.6C256,284.8,254.6,283.9,254.6,282z"/>
	<path class="st3" d="M284,298.4c0.7-0.5,0.9-0.6,1.2-0.6c1.2,0,2.7,1.3,2.8,2.5c0,0.2-0.1,0.7-0.7,1.2
		c-4.6,3.6-17.1,15.1-24.7,15.2c-3.6,0.1-6.2-2.1-6.3-6c-0.3-8.8,12.3-21.7,20.6-30.1l-7.4,0.2c-1.2,0-1.9-0.3-1.9-0.8
		c0-1.3,2.9-3.5,6.7-4.1c2.9-0.4,6.7-0.9,8.9-1.1c8.6-7.7,16.6-14.1,21.2-17.5c1.4-1,2.7-1.6,3.7-1.6c0.8,0,1.4,0.4,1.4,1.1
		c0,0.7-0.5,1.9-1.6,3.3c-2.9,3.5-7.8,8.5-13.3,14c9.1-0.1,17.4,0.3,25.1,0.9c1.2,0.1,1.6,0.5,1.7,1.1c0,1.2-2.9,3.5-5,3.5
		l-28.3,0.7c-6.7,6.4-13.7,12.7-19.3,17.6c-3.1,3.5-5.7,6.8-5.6,10.1c0,1.4,1.1,2.5,2.9,2.4C269.9,310.3,281.4,300.4,284,298.4z"/>
	<path class="st3" d="M276.9,309.9c-0.3-10,15.7-20.2,27.6-20.5c4.4-0.1,7.2,2,8.1,4.5l3.1-2.6c2.1-1.5,2.4-2,2.9-2
		c1.3,0,2.8,1.6,2.9,3.7c0,0.5-0.3,1-1,1.7c-1.4,1.3-3.6,3-6.3,5c-3.2,2.5-7.1,5.6-7,8.8c0,1.5,1,1.9,2.4,1.8
		c5.8-0.1,19.8-11.5,21.7-13c0.7-0.5,0.9-0.6,1.2-0.6c1.1,0,2.7,1.3,2.8,2.5c0,0.2-0.1,0.7-0.7,1.2c-1.8,1.5-17.1,15.1-26.8,15.3
		c-4.4,0.1-7-1.7-7-4.2c0-1.2,0.2-2.3,0.7-3.5c-5.3,4.1-11.6,8.1-17.7,8.3C279.4,316.3,277.1,313.8,276.9,309.9z M287.7,310
		c4.7-0.1,13.4-6.7,20.7-12.8c-0.4-2-2.4-3.1-5.1-3c-4.2,0.1-9.7,2.8-12.4,4.6c-4.9,3.6-6.6,6.4-6.5,8.4
		C284.5,308.9,285.6,310.1,287.7,310z"/>
	<path class="st3" d="M341.1,287.8c0.4-0.4,0.9-0.8,1.6-0.8c1.6,0,4.1,1.5,4.1,3.2c0,0.2-0.2,0.8-0.4,1.5c-1.3,3.3-3.4,6.7-5.8,9.8
		c8.3-6.3,17.5-14,22.5-14.1c2.3-0.1,3.4,0.9,3.5,3c0,1.5,0.1,3.9-2.9,8.8c10.1-6.7,21.3-11.6,24.9-11.7c1.5,0,2.8,2.1,2.9,3.3
		c0,1.5-5.2,4.5-7.8,6.5c-3.7,2.8-7.8,6.6-7.7,9.2c0,1,0.8,1.9,2,1.9c6.9-0.2,19.7-11.2,21.6-12.8c0.7-0.5,0.9-0.6,1.2-0.6
		c1.1,0,2.7,1.3,2.8,2.5c0,0.2-0.1,0.7-0.7,1.2c-2,1.5-17.7,14.8-27.2,15.1c-3.9,0.1-7-2.1-7.1-5.4c-0.1-3.8,2.8-7.4,7.1-11.1
		c-9.3,4.8-14.6,8.7-20.8,15c-1,1-1.9,1.8-2.8,1.8c-1,0-3.3-1.1-3.3-2.4c0-0.7,0.3-1.4,0.8-2.1c3.4-4.9,5.8-8.8,8.6-14.5
		c-9,6.2-16.9,12.2-26.1,20c-0.5,0.4-1.1,0.5-1.8,0.5c-1.9,0-4.3-1-4.4-2.3c0-0.2,0.1-0.5,0.3-0.8c3.4-4.4,6.1-8.3,8.5-12.2
		c-0.7,0.5-0.9,0.6-1.2,0.6c-1.1,0-2.7-1.3-2.8-2.5c0-0.4,0.1-0.7,0.7-1.2C333.3,295.7,337.3,292,341.1,287.8z"/>
	<path class="st3" d="M393,308.4c-0.2-6.4,6.4-14.1,17-22.1c0.2-0.1,0.5-0.3,0.9-0.3c1.3,0,2.8,1.8,2.9,3.4c0,0.5-0.1,0.8-0.5,1.1
		c-7.3,5.6-12.4,11.1-12.3,14.5c0,1.2,1.1,1.7,2.3,1.7c4.4-0.1,17.1-11,24.8-19.7c0.3-0.3,0.6-0.5,1.2-0.5c1.4,0,3.2,1.4,3.3,3.1
		c0,0.5-0.1,1.1-0.3,1.4c-5.4,6.5-10.1,10.9-10,13.9c0,0.9,0.8,1.6,2.1,1.6c4.1-0.1,13.8-7.5,19.7-12.1c0.7-0.5,0.9-0.6,1.2-0.6
		c1.1,0,2.7,1.3,2.8,2.5c0,0.2-0.1,0.7-0.7,1.2c-8.5,6.7-19.8,15.3-27,15.5c-2.8,0.1-5.2-1.5-5.3-4.7c0-0.9,0.1-2.1,0.7-3.5
		c-5.1,4.4-11.6,8.3-16.9,8.4C395.4,313.3,393.1,311.5,393,308.4z"/>
	<path class="st3" d="M457.7,282.4c0.3-0.3,0.7-0.4,1.3-0.4c1.1,0,2.8,0.6,2.8,1.6c0,0.9-1.5,1.8-1.4,2.6c0,0.7,2.1,1,3.3,1
		c1.9,0,3.6-0.6,4.5-0.6c1.2,0,2.1,1.3,2.2,2.3c0,0.3-0.2,0.8-0.4,1c-4.6,3.8-12.1,10.6-12,13.7c0,1.2,0.9,1.9,2.3,1.8
		c4.7-0.1,14.4-7.2,20.3-11.8c0.7-0.5,0.9-0.6,1.2-0.6c1.1,0,2.7,1.3,2.8,2.5c0,0.2-0.1,0.7-0.7,1.2c-7.2,5.6-18.4,14.8-27.5,15
		c-4.8,0.1-6-2.7-6.1-4.9c-0.2-6.2,7.9-12.8,9.5-14.3c-2.1,0.1-3.9-0.8-4.4-1.8c-1.1,1.1-6.1,5.4-8,6.9c-0.7,0.5-0.9,0.6-1.2,0.6
		c-1.1,0-2.7-1.3-2.8-2.5c0-0.4,0.1-0.7,0.7-1.2C445.9,292.9,450.8,288.6,457.7,282.4z"/>
	<path class="st3" d="M473.4,305.1c-0.3-10,15.7-20.2,27.6-20.5c4.4-0.1,7.2,2,8.1,4.5c0.4-0.4,1.9-1.6,3.1-2.6c2.1-1.5,2.4-2,3.1-2
		c1.1,0,2.6,1.6,2.7,3.7c0,0.5-0.3,1-1,1.7c-1.4,1.3-3.6,3-6.3,5c-3.2,2.5-7.1,5.6-7,8.8c0,1.5,1,1.9,2.4,1.8
		c3.9-0.1,7.7-3.2,9.5-4.8c0.3-0.3,0.6-0.3,0.9-0.3c1.1,0,2.7,1.3,2.8,2.4c0,0.4-0.2,0.7-0.4,0.9c-1.7,1.4-7.5,6.9-14.5,7.1
		c-4.4,0.1-7-1.7-7-4.2c0-1.2,0.2-2.3,0.7-3.5c-5.3,4.1-11.6,8.1-17.7,8.3C475.8,311.4,473.5,309,473.4,305.1z M484.1,305.2
		c4.7-0.1,13.4-6.7,20.7-12.8c-0.4-2-2.4-3.1-5.1-3c-4.2,0.1-9.7,2.8-12.4,4.6c-4.9,3.6-6.6,6.4-6.5,8.4
		C480.9,304.1,482,305.3,484.1,305.2z"/>
</g>
</svg>
